<svg xmlns="http://www.w3.org/2000/svg" viewBox="0 0 870.4 999.92"><defs><style>.cls-1{fill:#f0db4f;}.cls-2{fill:#323330;}</style></defs><title>LOGO FINAL</title><g id="Capa_2" data-name="Capa 2"><g id="Capa_1-2" data-name="Capa 1"><polygon class="cls-1" points="437.03 19.96 12.72 274.09 18.18 741.71 435.42 979.96 857.68 741.71 857.68 264.21 437.03 19.96"/><path class="cls-2" d="M738.16,505.55l-20.92-8.64a3,3,0,0,0-2.29,5.54l20.92,8.64a3,3,0,1,0,2.29-5.54Z"/><path class="cls-2" d="M718.67,475a3,3,0,0,0,2.83,3.16l22.6,1.25h.17a3,3,0,0,0,.16-6l-22.6-1.25A3,3,0,0,0,718.67,475Z"/><path class="cls-2" d="M715.7,450a3,3,0,0,0,3.73,2l21.69-6.49a3,3,0,1,0-1.72-5.75l-21.69,6.49A3,3,0,0,0,715.7,450Z"/><path class="cls-2" d="M704.84,428.13a3,3,0,0,0,4.19.65l18.28-13.36a3,3,0,0,0-3.54-4.84l-18.28,13.36A3,3,0,0,0,704.84,428.13Z"/><path class="cls-2" d="M687.78,411.43a3,3,0,0,0,4.18-.74l13-18.55A3,3,0,0,0,700,388.7l-13,18.55A3,3,0,0,0,687.78,411.43Z"/><path class="cls-2" d="M666.25,401.14a3,3,0,0,0,3.71-2.05l6.28-21.75a3,3,0,0,0-5.77-1.66l-6.28,21.75A3,3,0,0,0,666.25,401.14Z"/><path class="cls-2" d="M641.8,398.45H642a3,3,0,0,0,2.82-3.17l-1.34-22.6a3,3,0,0,0-6,.36l1.34,22.6A3,3,0,0,0,641.8,398.45Z"/><path class="cls-2" d="M268.5,181.67l150.2-86.6-63.8,81.4a4.2,4.2,0,0,0,6.6,5.2l69.7-88.9v86.9a4.27,4.27,0,0,0,4.3,4.3,4.15,4.15,0,0,0,4.3-4.3V92.77l69.7,88.9a4.12,4.12,0,0,0,3.4,1.6,3.38,3.38,0,0,0,2.5-.9,4.35,4.35,0,0,0,.7-5.9l-63.8-81.4,152.9,88.2a3.14,3.14,0,0,0,2,.5,4.11,4.11,0,0,0,3.6-2,4.66,4.66,0,0,0-1.9-5.8L437.2,76.87a1,1,0,0,0-.7-.2h-2.4c-.2,0-.5.2-.7.2l-169,97.5a4.2,4.2,0,0,0-1.6,5.7A4.25,4.25,0,0,0,268.5,181.67Z"/><path class="cls-2" d="M602.1,814.27l-150,86.6,63.8-81.4a4.2,4.2,0,0,0-6.6-5.2l-69.7,88.9v-86.9a4.27,4.27,0,0,0-4.3-4.3,4.15,4.15,0,0,0-4.3,4.3v86.9l-69.7-88.9a4.2,4.2,0,0,0-6.6,5.2l63.8,81.4-152.9-88.2a4.19,4.19,0,1,0-4.1,7.3l171.7,99.1h.2c.2,0,.2.2.5.2h.6c.2,0,.7.2.9.2.5,0,.7,0,.9-.2h.4c.2,0,.2-.2.5-.2h.2l169-97.5a4.33,4.33,0,0,0,1.4-5.7A4.25,4.25,0,0,0,602.1,814.27Z"/><circle class="cls-2" cx="619.1" cy="807.97" r="5.2"/><circle class="cls-2" cx="435.7" cy="787.57" r="5.2"/><circle class="cls-2" cx="249.3" cy="807.97" r="5.2"/><path class="cls-2" d="M862.7,244.32,442.9,2a15.65,15.65,0,0,0-15.4,0L7.7,244.32A15.33,15.33,0,0,0,0,257.62v484.7a15.33,15.33,0,0,0,7.7,13.3l419.8,242.3a15.27,15.27,0,0,0,7.7,2,15.78,15.78,0,0,0,7.7-2l419.8-242.3a15.33,15.33,0,0,0,7.7-13.3V257.62A15.33,15.33,0,0,0,862.7,244.32ZM755.86,722.22V563.73h4V722.22Zm-126.38,0V563.71h119.4l.2,0h.78V722.22Zm-22.17,0V563.71h5.13v158.5Zm-71.43,0V661.07h4.74v61.14Zm44-67.14c-2-8.24-10-14.32-19.35-14.32s-17.34,6.1-19.36,14.32h-4.62a24.58,24.58,0,0,1,48,0Zm-6.27,0H547.41c1.9-4.87,7.07-8.32,13.09-8.32S571.67,650.2,573.58,655.07Zm-27,6h27.75v61.14H546.63Zm33.75,0h4.74v61.14h-4.74Zm-19.85-31.29a30.63,30.63,0,0,0-30.37,27.06,2.85,2.85,0,0,0-.16,2c0,.3,0,.61,0,.91a3,3,0,0,0-.07.63v61.84H519.61V563.71h81.71v158.5h-10.2V660.38A30.62,30.62,0,0,0,560.53,629.79Zm-52,92.43V563.71h5v158.5Zm-31.3,0V563.71h5v158.5Zm-66.68,0V661.07h4.74v61.14Zm-10.66,0V661.07h4.66v61.14Zm-59.41,0V660.38a2.89,2.89,0,0,0-.07-.61c0-.31,0-.62,0-.94a2.85,2.85,0,0,0-.16-2A30.58,30.58,0,0,0,279.38,658s0,0,0,0h0c-.06.76-.1,1.52-.1,2.3v61.84h-10.2V563.71h81.71v158.5Zm-55.23,0V661.07H290v61.14Zm44-67.14c-2-8.24-10-14.32-19.36-14.32s-17.33,6.09-19.35,14.32h-4.68a24.58,24.58,0,0,1,48,0Zm-6.27,0H296.81c1.9-4.87,7.06-8.32,13.08-8.32S321.08,650.2,323,655.07Zm-27,6h27.75v61.14H296Zm33.75,0h4.74v61.14h-4.74ZM258,722.22V563.71h5.13v158.5Zm-11,0V563.71h5v158.5Zm-136.4,0V563.73h4V722.22Zm-79.53,0-.18-116.43,1.29-.85.24-.15.1-.06,68-44.38v.39a3,3,0,0,0,3,3h1.11V722.22Zm85.18-183.69v1.17h-7.62v-1.17Zm41.61-15.62h0l2-1.32,61.85-40.37,28.58-18.66v70H235.51a3,3,0,0,0-3,3v3.25h-99ZM403.17,373.14c0,.06.06.11.09.17a3,3,0,0,0,.15.3c0,.08.11.15.16.23s.12.16.18.23l.21.2.22.18.26.16.24.13.33.12.17.07h0a3,3,0,0,0,.7.09h0a3,3,0,0,0,.5,0h0a3,3,0,0,0,.49-.14h.05l.1-.05a3,3,0,0,0,.35-.18l.17-.11a3,3,0,0,0,.28-.23l.14-.12a3,3,0,0,0,.3-.36l0,0a3,3,0,0,0,.27-.48s0-.09,0-.13a3,3,0,0,0,.11-.32c.5-1.86,2-6.43,5.52-8.59a7.28,7.28,0,0,1,3.22-1.09l49.11-.65,27.48,17.93-3.27,5.05a3,3,0,0,0,2.52,4.63h9.12v54.76l-1,1.18s-.07.1-.11.15a3,3,0,0,0-.19.26c-.05.08-.09.16-.13.25s-.09.18-.12.27-.06.19-.09.28,0,.18-.06.28a3,3,0,0,0,0,.32c0,.06,0,.12,0,.18v25.7H485.55l-35.31-21.08.91-1.11a1.5,1.5,0,0,0,.16-1.67,1,1,0,0,1-.11-.59,1,1,0,0,1,.3-.6,1.5,1.5,0,0,0-2.06-2.18,14.87,14.87,0,0,1-4,2.64q-.5.22-1,.41l-.34-.61a1.61,1.61,0,0,0-1.31-.76h-1.09l-1.29-.12-.71-.36a1.94,1.94,0,0,0,1-.43c1.36-1.12.79-3.61.32-5-.84-2.51-2.68-5.23-5.28-5.33s-4.46,2.2-5.51,4.38c-.41.84-1.62,3.71-.26,5.29a2.34,2.34,0,0,0,1.34.76l-1.44.72-.72.16-1.1,0a1.53,1.53,0,0,0-1.2.53l-.73.87c-.41-.14-.82-.31-1.21-.49a14.8,14.8,0,0,1-4-2.64,1.5,1.5,0,0,0-2.06,2.18,1,1,0,0,1,.3.6,1,1,0,0,1-.12.6,1.5,1.5,0,0,0,.16,1.66l1.23,1.5-34.67,20.69H369.64V448c0-.06,0-.12,0-.18a3.05,3.05,0,0,0,0-.32c0-.1,0-.19-.06-.28a2.44,2.44,0,0,0-.21-.56c0-.08-.08-.16-.13-.24a3.05,3.05,0,0,0-.2-.27s-.06-.1-.1-.14l-1-1.18V390.09H377a3,3,0,0,0,2.52-4.63l-3.32-5.13,19.18-12.52a5.1,5.1,0,0,1,3.68.31C401.45,369.3,402.73,372,403.17,373.14ZM761.85,538.52v1.17h-7.62v-1.17Zm-9.76,19.21V556.5H764v1.24Zm-129.21,0v-1.17H628v1.17Zm-11.6,0h-8.13v-1.17h13.73v1.17Zm-106.88,0v-1.17h13.72v1.17Zm-27.16,0v-1.17h9.22v1.17Zm-22.69,97.36c-2-8.24-10-14.32-19.36-14.32s-17.33,6.1-19.35,14.32h-4.68a24.58,24.58,0,0,1,48,0Zm-6.27,0H422.11c1.9-4.87,7.06-8.32,13.08-8.32S446.38,650.2,448.28,655.07Zm17,0a30.58,30.58,0,0,0-60.24,0h-4.68a35.67,35.67,0,0,1,70.42,0Zm-113-97.36v-1.17H366v1.17Zm-93.15,0h-5.6v-1.17h13.73v1.17Zm-144.77-12v4.8H110v-4.8Zm119-.92a3,3,0,0,0,.76.56v5.21H121.81a3,3,0,0,0-.49,0h-1v-3.16l3.11-2,.82-.54Zm14.16-6.25v1.17h-9v-1.17Zm8.72-81.44s0-.05,0-.08v-7.93l1-1.18c0-.05.08-.11.12-.16l.1-.13.05-.09a3,3,0,0,0,.16-.29l.07-.13,0-.1a3,3,0,0,0,.1-.33l0-.13,0-.1a2.88,2.88,0,0,0,0-.36s0-.07,0-.1v-.19s0,0,0-.05V390.1H361.84V445.8s0,0,0,0h0s0,0,0,.07v.19s0,.06,0,.09a3,3,0,0,0,0,.36l0,.1,0,.13a3,3,0,0,0,.11.33l0,.1.06.13a2.9,2.9,0,0,0,.16.29l.05.09.1.13c0,.05.07.11.12.16l1,1.18v37.06h-12a3,3,0,0,0-3,3v7.17a3,3,0,0,0,2.17,2.87v51.29H269.08V499.25a3,3,0,0,0,2.17-2.87v-7.17a3,3,0,0,0-3-3h-12Zm129.52,22.63a2.9,2.9,0,0,0,1.49,0h37.68a11.74,11.74,0,0,0,.38,12.25c-21.31,2.41-35.58,11.22-41.19,15.3a3,3,0,0,0-1.23,2.42v40.85H369.64V479.72Zm46.63-35.28a7.44,7.44,0,0,1,1.53-3.31,2.7,2.7,0,0,1,1.72-1.19h0A2.26,2.26,0,0,1,437.1,441a7.85,7.85,0,0,1,1,2,3.45,3.45,0,0,0-5.73,1.4ZM607.32,550.55V499.38h6.85v51.16h-6.85Zm6.85-58.33v1.17h-9v-1.17Zm10.73,53.47h5.39v4.86H624.9Zm7-6h-9v-1.17h9Zm-19.53-149.6V445.9s0,.08,0,.12a2.94,2.94,0,0,0,0,.4c0,.07,0,.14,0,.21a3,3,0,0,0,.11.35c0,.07.06.14.1.21a2.93,2.93,0,0,0,.16.3l.15.21c0,.06.08.12.13.18l1,1.18v8s0,.07,0,.11v29.05h-12a3,3,0,0,0-3,3v7.17a3,3,0,0,0,2.17,2.87v51.29H519.61V499.25a3,3,0,0,0,2.17-2.87v-7.17a3,3,0,0,0-3-3h-12V449.16l1-1.18c.05-.06.09-.13.14-.19l.14-.19a3,3,0,0,0,.18-.33l.08-.19a3,3,0,0,0,.12-.38c0-.06,0-.12,0-.18a3,3,0,0,0,0-.43s0-.07,0-.11V390.09ZM506.76,550.55V499.38h6.85v51.16Zm9-57.16h-9v-1.17h9Zm-15,57.16H488.3V508.73s0,0,0-.06a3,3,0,0,0-1.3-2.55c-5.76-4-20.37-12.44-41.77-14.37a11.72,11.72,0,0,0,.24-12h55.29Zm-23.51,0V518.72s0,0,0-.06a3,3,0,0,0,0-.34c0-.09,0-.17,0-.25a3,3,0,0,0-.09-.29c0-.09-.05-.18-.09-.26s-.09-.17-.14-.25a2.93,2.93,0,0,0-.15-.26c0-.07-.11-.14-.17-.2a3,3,0,0,0-.22-.25l0,0a59.24,59.24,0,0,0-81.46,1.2,3,3,0,0,0-.91,2.15v30.69h-5v-39.3c6.84-4.7,22.92-13.65,46.53-13.89h1c23,0,39,8.37,45.92,12.86v40.34Zm-73.16,6h62.65v1.17H404.09Zm65.65-6H399.92v-29.4a53.23,53.23,0,0,1,71.33-1.09v30.49Zm-38.12-86.21c-.15-1.44-.35-2.88-.59-4.32a7.62,7.62,0,0,1,1.19,2,9.6,9.6,0,0,1,.58,3.19,9.23,9.23,0,0,0,1.57,5.25,24.87,24.87,0,0,0,3.05,3.19l.08.08H432A78.07,78.07,0,0,0,431.61,464.33Zm3.59,15.38a5.81,5.81,0,1,1-5.81,5.81A5.82,5.82,0,0,1,435.2,479.72Zm6.21-6a74.92,74.92,0,0,1,.4-9.07c.2-1.9.48-3.8.82-5.68v0c.16-.87.33-1.74.52-2.6l.87.3a1.49,1.49,0,0,0,1.11-.05l0,0,28.67,17.11Zm2.38-20.34-1.22-.43a1.5,1.5,0,0,0-1.95,1.06c-.12.49-.22,1-.33,1.47-.14-.11-.27-.23-.41-.34a10.17,10.17,0,0,0-2.83-1.45,7.16,7.16,0,0,1-1.29-.56,7.42,7.42,0,0,1-2.7-3.24l.38-.19.12-.07.08,0,.06,0h0l1-.73a2.8,2.8,0,0,0,1.47.12l.22.32a1.49,1.49,0,0,0,.91.59l2.06,1a1.52,1.52,0,0,0,.54.15l1.64.15s.08,0,.14,0H442l.51.9a1.48,1.48,0,0,0,1.52.73A3,3,0,0,0,443.79,453.37Zm-13.5-2.29a10.35,10.35,0,0,0,3.91,4.6,9.63,9.63,0,0,0,1.81.82,7.21,7.21,0,0,1,2.07,1,7.81,7.81,0,0,1,1.48,1.51c-.31,1.75-.56,3.52-.74,5.28-.21,2-.34,4.07-.4,6.11a18.17,18.17,0,0,1-1.61-1.71,6.36,6.36,0,0,1-1-3.72,11.24,11.24,0,0,0-5.69-9.77c-.09-.41-.18-.82-.28-1.23a1.5,1.5,0,0,0-1.95-1.06l-.91.32a3,3,0,0,0-.2-.43,1.49,1.49,0,0,0,1.06-.52l.91-1.07.57,0a1.46,1.46,0,0,0,.37,0Zm-4.58,5.83a2.94,2.94,0,0,0,.28-.21,1.48,1.48,0,0,0,.42-.07l.87-.3A74.75,74.75,0,0,1,429,473.72H397.56Zm-62.06,35.3v1.17h-9v-1.17Zm-6.85,7.17h6.85v51.16h-6.85Zm-97.68,51.16h-2.88V499.38h6.84v51.16Zm-19,0v-4.86h5.39v4.86Zm25.13-57.16h-9v-1.17h9ZM106.41,557.73V556.5h9.39a3,3,0,0,0,.49,0h2v1.19Zm17.9-1.19H236.39v1.12H124.31Zm118.08,1.17v-1.17h5.13v1.17Zm30.85-1.17h73v1.17h-73Zm98.75,0h6.37v1.17H372Zm12.37,1.17v-1.17h9.55v1.17Zm15.56,6h71.32v.67s0,.09,0,.14v74.76a41.63,41.63,0,0,0-71.33,0Zm92.54-7.17h5.94v1.17h-5.94Zm31.67,0h73v1.17h-73Zm109.88,0H746.09v1.17H634Zm122-10.85h4.34v4.8h-4.34Zm-6,1.68v3.12h-1a3,3,0,0,0-.49,0H636.29v-5.21a3,3,0,0,0,.76-.56h109Zm-13.17-8.6h-99v-3.25a3,3,0,0,0-3-3H620.17v-69.9ZM615.4,384.1H499l1.88-2.91h0L560.46,289,622,384.1Zm-244,0h-123L309.94,289ZM120.54,563.73h.77a3,3,0,0,0,.63-.07h117a3,3,0,0,0,.48,0h1.52v158.5H120.54Zm236.26,0h5v158.5h-5Zm11,0h15v158.5h-15Zm21,0h5v1.81s0,.06,0,.1V658s0,.06,0,.1v64.14h-5Zm32.44,97.36h27.75v61.14H421.33Zm33.75,0h4.74v61.14h-4.74Zm10.74,0h5.43v61.14h-5.43Zm22.49-97.36h14.26v158.5H488.3Zm130.14,0h5v158.5h-5Zm147.44,0H767a3,3,0,0,0,3-3v-.36l13.72,9h0l56.11,36.62.07,116.3-.24,0H765.88ZM435.19,33.13h0l404.4,233.4.22,332.25L789.64,566h0L770,553.19a3,3,0,0,0-3-2.7h-.6v-5.24a3,3,0,0,0,1.46-2.56v-7.17a3,3,0,0,0-3-3H751.23a3,3,0,0,0-3,3v3.25h-.37l-5.19-3.39,0,0-46.11-30.09a61,61,0,0,0-78.17-88.65V390.1h9.12A3,3,0,0,0,628,390l.15,0,.39-.12.13,0a3,3,0,0,0,.43-.23h0a3,3,0,0,0,.34-.27l.12-.1a3,3,0,0,0,.25-.3l.12-.14a3,3,0,0,0,.21-.38l.07-.12a3,3,0,0,0,.09-.29c0-.09.06-.17.08-.27s0-.14,0-.21a3,3,0,0,0,0-.38v0c0-.07,0-.13,0-.2a2.91,2.91,0,0,0,0-.36,2.87,2.87,0,0,0-.08-.3c0-.09,0-.18-.08-.26a2.9,2.9,0,0,0-.18-.36s0-.1-.08-.15l0,0h0l-64-98.95h2.16a3,3,0,0,0,0-6h-4.67V268.88a3,3,0,0,1,.84-.13h0a3.28,3.28,0,0,1,2,.7,3,3,0,1,0,3.69-4.73,9.33,9.33,0,0,0-5.61-2h-.08c-.29,0-.56,0-.83,0v-1.58a3,3,0,0,0-6,0v1.58c-.25,0-.5,0-.76,0h-.08a9.31,9.31,0,0,0-5.68,2,3,3,0,1,0,3.69,4.73,3.33,3.33,0,0,1,2-.69h0a3,3,0,0,1,.81.12v11.59h-4.67a3,3,0,0,0,0,6h2.16l-57.5,88.91L469.25,357h0l-.12-.06a3,3,0,0,0-.39-.2l-.25-.08-.3-.09a3,3,0,0,0-.35,0l-.21,0h0l-50.17.66h-.21a13.23,13.23,0,0,0-5.95,2,17.17,17.17,0,0,0-5.85,6.38,12.71,12.71,0,0,0-3.75-2.79,11.18,11.18,0,0,0-8.57-.46,3,3,0,0,0-.64.32L372.9,375.3l-57.45-88.83h2.16a3,3,0,1,0,0-6h-4.67V268.88a3,3,0,0,1,.81-.13,3.54,3.54,0,0,1,2,.69,3,3,0,0,0,3.69-4.73,9.44,9.44,0,0,0-5.75-2c-.26,0-.51,0-.76,0v-1.58a3,3,0,0,0-6,0v1.58c-.27,0-.55,0-.83,0H306a9.33,9.33,0,0,0-5.61,2,3,3,0,1,0,3.69,4.73,3.28,3.28,0,0,1,2-.7,3.37,3.37,0,0,1,.86.13v11.58h-4.67a3,3,0,0,0,0,6h2.16l-64,98.95h0l0,0s0,.1-.08.15a2.9,2.9,0,0,0-.18.36c0,.09-.06.18-.08.26a2.87,2.87,0,0,0-.08.3,2.91,2.91,0,0,0,0,.36c0,.07,0,.13,0,.2v0a3,3,0,0,0,0,.38c0,.07,0,.14,0,.21s.05.18.08.27a3,3,0,0,0,.09.29l.07.12a3,3,0,0,0,.21.38l.12.14a3,3,0,0,0,.25.3l.12.1a3,3,0,0,0,.34.27h0a3,3,0,0,0,.43.23l.13,0a3,3,0,0,0,.39.12l.15,0a3,3,0,0,0,.53.05H252v54.68l-1,1.18s-.07.1-.11.15a3,3,0,0,0-.19.26c-.05.08-.09.16-.13.25s-.09.18-.12.27-.06.19-.09.28,0,.18-.06.28a3,3,0,0,0,0,.32c0,.06,0,.12,0,.18v7.45l-31.86,20.8-61.85,40.37-34,22.22h-.31v-3.25a3,3,0,0,0-3-3H105.55a3,3,0,0,0-3,3v7.17a3,3,0,0,0,1.46,2.56v5.24h-.6a3,3,0,0,0-3,2.66L30.79,598.64l-.5-332.11Zm0,933.79-.12-.07L40.86,739.22H240v-7H31v-4H839.65l.25,0v4H630.45v7H830Z"/><path class="cls-2" d="M299.5,208.4a3.16,3.16,0,0,0-3.2,3.2V227l-12.6-16.6c-.9-1.1-1.8-2-3.4-2h-.7a3.37,3.37,0,0,0-3.4,3.4v23.8a3.2,3.2,0,1,0,6.4.1V219.6l13.1,17.2c.9,1.1,1.8,2,3.4,2h.2a3.37,3.37,0,0,0,3.4-3.4V211.6A3.16,3.16,0,0,0,299.5,208.4Z"/><path class="cls-2" d="M324.7,208.3c-9.2,0-16.1,7-16.1,15.4,0,8.6,6.5,15.4,15.8,15.4s16.1-7,16.1-15.4C340.5,215.1,333.9,208.3,324.7,208.3Zm-.1,24.9a9.14,9.14,0,0,1-9-9.5c0-5.2,3.6-9.3,9-9.3,5.2,0,9,4.3,9,9.5S330,233.2,324.6,233.2Z"/><path class="cls-2" d="M357.9,208.8h-8.4a3.37,3.37,0,0,0-3.4,3.4v23.1a3.41,3.41,0,0,0,3.4,3.3h8.4c9.5,0,15.8-6.6,15.8-14.9S367.1,208.8,357.9,208.8Zm0,23.9h-5v-18h5c5.4,0,9,3.6,9,9A8.61,8.61,0,0,1,357.9,232.7Z"/><path class="cls-2" d="M399.7,232.8H386.1v-6.4h11.3a3,3,0,0,0,2.9-2.9,3,3,0,0,0-2.9-2.9H386.1v-6.2h13.3a2.9,2.9,0,0,0,0-5.8H382.9a3.37,3.37,0,0,0-3.4,3.4v23.3a3.57,3.57,0,0,0,3.5,3.3h16.7a3,3,0,0,0,2.9-2.9A3,3,0,0,0,399.7,232.8Z"/><path class="cls-2" d="M420.8,220.8c-5.2-1.4-6.6-2-6.6-3.8,0-1.4,1.4-2.7,3.8-2.7a12.52,12.52,0,0,1,6.3,2,4.94,4.94,0,0,0,1.6.5,3.11,3.11,0,0,0,3.2-2.9,3,3,0,0,0-1.4-2.7,16.8,16.8,0,0,0-9.5-2.7c-6.1,0-10.4,3.6-10.4,9,0,5.9,3.8,7.7,10,9,5,1.4,6.1,2,6.1,3.8s-1.6,2.7-4.3,2.7a13.31,13.31,0,0,1-7.7-2.7,4.84,4.84,0,0,0-1.8-.7,3.11,3.11,0,0,0-3.2,2.9,2.6,2.6,0,0,0,1,3,18.56,18.56,0,0,0,11.3,3.6c6.6,0,11.1-3.4,11.1-9.3C430.3,224.6,426.9,222.3,420.8,220.8Z"/><path class="cls-2" d="M458.2,230.1a3.06,3.06,0,0,0-2,.7,8.87,8.87,0,0,1-6.6,2.3c-5.2,0-8.6-4.3-8.6-9.5s3.6-9.3,8.6-9.3a10.13,10.13,0,0,1,6.1,2,4.67,4.67,0,0,0,2,.7,3.16,3.16,0,0,0,3.2-3.2,4,4,0,0,0-1.4-2.7c-2.5-1.8-5.4-2.9-10-2.9a15.14,15.14,0,0,0-15.6,15.4c.6,8.7,7.2,15.5,15.8,15.5a14.72,14.72,0,0,0,10.6-3.8,2.84,2.84,0,0,0,1.1-2.3A3,3,0,0,0,458.2,230.1Z"/><path class="cls-2" d="M489.7,208.3a3.37,3.37,0,0,0-3.4,3.4v8.8H474.1v-8.8a3.4,3.4,0,0,0-6.8,0v23.8a3.25,3.25,0,0,0,3.4,3.4,3.37,3.37,0,0,0,3.4-3.4v-9h12.2v9a3.4,3.4,0,0,0,6.8,0V211.7A3.37,3.37,0,0,0,489.7,208.3Z"/><path class="cls-2" d="M514.4,208.3c-9.3,0-16.1,7-16.1,15.4a15.63,15.63,0,0,0,16.1,15.4c9.3,0,15.8-7,15.8-15.4C530.2,215.1,523.6,208.3,514.4,208.3Zm-.1,24.9a9.33,9.33,0,0,1-9-9.5c0-5.2,3.6-9.3,9-9.3,5.2,0,9,4.3,9,9.5S519.7,233.2,514.3,233.2Z"/><path class="cls-2" d="M551.1,208.3c-9.3,0-16.1,7-16.1,15.4,0,8.6,6.5,15.4,15.8,15.4s16.1-7,16.1-15.4C566.9,215.1,560.3,208.3,551.1,208.3Zm-.3,24.9a9.27,9.27,0,0,1-9-9.5c0-5.2,3.6-9.3,9-9.3,5.2,0,9,4.3,9,9.5S556.2,233.2,550.8,233.2Z"/><path class="cls-2" d="M591.3,232.8H579.1V212a3.4,3.4,0,0,0-6.8,0v23.3a3.59,3.59,0,0,0,3.6,3.3h15.4a3,3,0,0,0,2.9-2.9A3,3,0,0,0,591.3,232.8Z"/><path class="cls-2" d="M277.46,441.44h21.79a3,3,0,0,0,3-3V412.68a13.9,13.9,0,0,0-27.79,0v25.77A3,3,0,0,0,277.46,441.44Zm3-28.77a7.9,7.9,0,0,1,15.79,0v22.77H280.46Z"/><path class="cls-2" d="M320.63,441.44h21.79a3,3,0,0,0,3-3V412.68a13.9,13.9,0,0,0-27.79,0v25.77A3,3,0,0,0,320.63,441.44Zm3-28.77a7.9,7.9,0,1,1,15.79,0v22.77H323.63Z"/><path class="cls-2" d="M277.46,493.22h21.79a3,3,0,0,0,3-3V464.45a13.9,13.9,0,0,0-27.79,0v25.77A3,3,0,0,0,277.46,493.22Zm3-28.77a7.9,7.9,0,0,1,15.79,0v22.77H280.46Z"/><path class="cls-2" d="M320.63,493.22h21.79a3,3,0,0,0,3-3V464.45a13.9,13.9,0,0,0-27.79,0v25.77A3,3,0,0,0,320.63,493.22Zm3-28.77a7.9,7.9,0,0,1,15.79,0v22.77H323.63Z"/><path class="cls-2" d="M277.46,544.78h21.79a3,3,0,0,0,3-3V516a13.9,13.9,0,0,0-27.79,0v25.77A3,3,0,0,0,277.46,544.78Zm3-28.77a7.9,7.9,0,0,1,15.79,0v22.77H280.46Z"/><path class="cls-2" d="M320.63,544.78h21.79a3,3,0,0,0,3-3V516a13.9,13.9,0,0,0-27.79,0v25.77A3,3,0,0,0,320.63,544.78Zm3-28.77a7.9,7.9,0,0,1,15.79,0v22.77H323.63Z"/><path class="cls-2" d="M528,441.42h21.79a3,3,0,0,0,3-3V412.65a13.9,13.9,0,0,0-27.79,0v25.77A3,3,0,0,0,528,441.42Zm3-28.77a7.9,7.9,0,0,1,15.79,0v22.77H531Z"/><path class="cls-2" d="M571.15,441.42h21.79a3,3,0,0,0,3-3V412.65a13.89,13.89,0,0,0-27.79,0v25.77A3,3,0,0,0,571.15,441.42Zm3-28.77a7.89,7.89,0,0,1,15.79,0v22.77H574.15Z"/><path class="cls-2" d="M528,493.19h21.79a3,3,0,0,0,3-3V464.42a13.9,13.9,0,0,0-27.79,0v25.77A3,3,0,0,0,528,493.19Zm3-28.77a7.9,7.9,0,0,1,15.79,0v22.77H531Z"/><path class="cls-2" d="M571.15,493.19h21.79a3,3,0,0,0,3-3V464.42a13.89,13.89,0,0,0-27.79,0v25.77A3,3,0,0,0,571.15,493.19Zm3-28.77a7.89,7.89,0,0,1,15.79,0v22.77H574.15Z"/><path class="cls-2" d="M528,544.75h21.79a3,3,0,0,0,3-3V516A13.9,13.9,0,0,0,525,516v25.77A3,3,0,0,0,528,544.75ZM531,516a7.9,7.9,0,0,1,15.79,0v22.77H531Z"/><path class="cls-2" d="M571.15,544.75h21.79a3,3,0,0,0,3-3V516a13.89,13.89,0,0,0-27.79,0v25.77A3,3,0,0,0,571.15,544.75Zm3-28.77a7.89,7.89,0,0,1,15.79,0v22.77H574.15Z"/><path class="cls-2" d="M179,597.17c-13,0-23.88,9.33-26.73,21.83a7.26,7.26,0,0,0-.73,3.17v53.91a3,3,0,0,0,3,3h48.91a3,3,0,0,0,3-3V622.18a7.26,7.26,0,0,0-.73-3.17C202.89,606.51,192,597.17,179,597.17Zm-18.35,22.92c1.74,0,3,1,3.1,1.93h-5.95c0-.27.09-.54.14-.81A3.49,3.49,0,0,1,160.66,620.09Zm39.41,1.13c0,.27.1.53.14.8h-5.95c.12-.94,1.35-1.93,3.08-1.93A3.51,3.51,0,0,1,200.07,621.22ZM157.56,628h6.23v10.82h-6.23Zm12.23,0H176v10.82h-6.23ZM182,628h6.23v10.82H182Zm12.23,0h6.23v10.82h-6.23ZM182,622c.12-.94,1.35-1.93,3.08-1.93s3,1,3.1,1.93Zm-12.23,0c.12-.94,1.35-1.93,3.08-1.93s3,1,3.1,1.93Zm-12.25,22.82h6.23v10.82h-6.23Zm12.23,0H176v10.82h-6.23Zm12.23,0h6.23v10.82H182Zm12.23,0h6.23v10.82h-6.23ZM179,603.17a21.31,21.31,0,0,1,18.44,10.93h-.11a9.72,9.72,0,0,0-6.11,2.11,9.93,9.93,0,0,0-12.23,0,9.93,9.93,0,0,0-12.23,0,9.75,9.75,0,0,0-6.12-2.11h-.1A21.32,21.32,0,0,1,179,603.17Zm-21.46,58.5h6.23v11.42h-6.23Zm12.23,0H176v11.42h-6.23Zm12.23,0h6.23v11.42H182Zm12.23,11.42V661.67h6.23v11.42Z"/><path class="cls-2" d="M691.38,597.17c-13,0-23.87,9.34-26.72,21.84a7.26,7.26,0,0,0-.73,3.17v53.91a3,3,0,0,0,3,3h48.91a3,3,0,0,0,3-3V622.18a7.27,7.27,0,0,0-.73-3.17C715.26,606.51,704.37,597.17,691.38,597.17Zm-18.33,22.92c1.74,0,3,1,3.08,1.93h-5.94c0-.27.09-.54.14-.8A3.51,3.51,0,0,1,673.06,620.09Zm39.39,1.12c.05.27.1.53.14.81h-5.94c.12-.94,1.35-1.93,3.1-1.93A3.49,3.49,0,0,1,712.45,621.22ZM669.94,628h6.23v10.82h-6.23Zm12.23,0h6.23v10.82h-6.23Zm12.23,0h6.23v10.82h-6.23Zm12.23,0h6.23v10.82h-6.23Zm-12.2-6c.12-.94,1.35-1.93,3.1-1.93s3,1,3.08,1.93Zm-12.23,0c.12-.94,1.35-1.93,3.1-1.93s3,1,3.08,1.93Zm-12.25,22.82h6.23v10.82h-6.23Zm12.23,0h6.23v10.82h-6.23Zm12.23,0h6.23v10.82h-6.23Zm12.23,0h6.23v10.82h-6.23Zm-15.23-41.67a21.33,21.33,0,0,1,18.45,10.93h-.1a9.75,9.75,0,0,0-6.12,2.11,9.93,9.93,0,0,0-12.23,0,9.93,9.93,0,0,0-12.23,0,9.72,9.72,0,0,0-6.11-2.11h-.11A21.31,21.31,0,0,1,691.38,603.17Zm-21.45,58.5h6.23v11.42h-6.23Zm12.23,0h6.23v11.42h-6.23Zm12.23,0h6.23v11.42h-6.23Zm12.23,11.42V661.67h6.23v11.42Z"/><path class="cls-2" d="M456.56,529a20.84,20.84,0,0,0-1.17-6.83,3,3,0,0,0-.24-.64,21.06,21.06,0,0,0-12.1-12.1,3,3,0,0,0-.64-.24A20.88,20.88,0,0,0,416,521.53a3,3,0,0,0-.24.67,20.88,20.88,0,0,0,12.6,26.49h0a20.6,20.6,0,0,0,14,.13,3,3,0,0,0,.64-.24,21.05,21.05,0,0,0,12.19-12.36v0A20.83,20.83,0,0,0,456.56,529Zm-36,0a15,15,0,0,1,.34-3.15h5.59v6.2h-5.62A15,15,0,0,1,420.6,529Zm11.93-3.15h6.2v6.2h-6.2Zm12.2,0h5.49a14.88,14.88,0,0,1,0,6.2h-5.51Zm2.68-6h-2.68v-2.68A15.08,15.08,0,0,1,447.41,519.86Zm-8.68-5.49v5.49h-6.2v-5.51a14.87,14.87,0,0,1,6.2,0Zm-12.2,2.73v2.76h-2.78A15.07,15.07,0,0,1,426.53,517.1Zm-2.86,21h2.86v2.86A15.08,15.08,0,0,1,423.67,538.06Zm8.86,5.62v-5.62h6.2v5.59a14.87,14.87,0,0,1-6.2,0Zm12.2-2.84v-2.78h2.76A15.07,15.07,0,0,1,444.74,540.84Z"/><path class="cls-2" d="M340.81,796.12c4.93-1.3,6.23-1,7,.26s0,3.12-2.34,4.42a12.13,12.13,0,0,1-7.79,1.56,2.8,2.8,0,0,0-1.82.52,3.26,3.26,0,0,0-1,4.16,2.78,2.78,0,0,0,2.34,1.56,19.8,19.8,0,0,0,11.43-2.34c5.46-3.12,7.53-8.31,4.68-13.25-2.6-4.42-6.49-4.42-12.47-2.86-4.93,1.3-6.23,1.3-7.27-.26-.52-1.3,0-2.86,2.08-4.16a12.23,12.23,0,0,1,6.23-1.3,3.69,3.69,0,0,0,1.56-.52,3.26,3.26,0,0,0,1-4.16,3.55,3.55,0,0,0-2.6-1.56,15.72,15.72,0,0,0-9.35,2.34c-5.19,3.12-7,8.05-4.42,12.73C330.94,798.19,335.1,797.68,340.81,796.12Z"/><path class="cls-2" d="M509.18,800.19a3,3,0,0,0,4.42-1l7.27-12.47.52,10.13c.26,1.3.52,2.34,1.56,2.86a2.74,2.74,0,0,0,3.12,0l9.09-4.68-7.27,12.47a3,3,0,0,0,1,4.42,3.33,3.33,0,0,0,4.42-1.3l11.69-20a3.33,3.33,0,0,0-1.3-4.42l-.52-.26a3.84,3.84,0,0,0-3.38,0l-13,7-.52-14.8a3,3,0,0,0-1.56-2.86l-.52-.26a3.33,3.33,0,0,0-4.42,1.3L508.14,796A2.81,2.81,0,0,0,509.18,800.19Z"/></g></g></svg>