<!DOCTYPE svg PUBLIC "-//W3C//DTD SVG 20010904//EN" "http://www.w3.org/TR/2001/REC-SVG-20010904/DTD/svg10.dtd">
<svg version="1.0" xmlns="http://www.w3.org/2000/svg" width="600px" height="689px" viewBox="0 0 6000 6890" preserveAspectRatio="xMidYMid meet">
<g id="layer101" fill="#010101" stroke="none">
 <path d="M1825 6237 c-884 -511 -1136 -652 -1157 -649 -21 3 -30 -2 -41 -24 -12 -22 -86 -70 -301 -194 -157 -91 -295 -169 -306 -175 -20 -10 -20 -17 -20 -1737 l0 -1728 27 -29 c16 -15 681 -405 1480 -865 1286 -740 1457 -836 1493 -836 37 0 208 96 1493 836 799 460 1464 849 1480 865 l27 29 0 1715 0 1715 -27 29 c-16 16 -187 120 -381 231 -201 116 -360 213 -369 226 -9 15 -25 24 -41 24 -15 0 -439 239 -1083 610 -964 556 -1061 610 -1100 610 -39 -1 -161 -69 -1174 -653z"/>
 </g>
<g id="layer102" fill="#fefefe" stroke="none">
 <path d="M2390 5985 c-444 -256 -595 -348 -595 -361 0 -11 7 -20 16 -22 9 -1 249 132 535 296 285 165 521 298 523 296 5 -4 -11 -25 -233 -309 -98 -126 -184 -236 -189 -243 -12 -16 15 -48 32 -38 6 4 114 139 241 301 127 162 235 297 240 300 7 4 10 -99 10 -287 0 -161 4 -299 9 -306 5 -8 17 -12 27 -10 18 3 19 20 24 311 l5 309 244 -312 c237 -302 277 -344 275 -284 0 11 -94 141 -210 288 -196 251 -229 296 -208 284 5 -3 237 -137 517 -298 301 -174 513 -290 522 -286 26 10 16 35 -22 59 -120 75 -1142 657 -1154 657 -8 -1 -282 -155 -609 -345z"/>
 <path d="M1697 5594 c-13 -13 -7 -52 9 -58 22 -9 46 13 42 38 -3 21 -37 34 -51 20z"/>
 <path d="M4247 5593 c-12 -11 -8 -51 6 -56 19 -7 47 12 47 32 0 24 -37 41 -53 24z"/>
 <path d="M2320 5460 l-30 -60 40 -20 c44 -22 50 -24 50 -11 0 5 -14 14 -30 21 -20 8 -30 19 -28 29 4 16 8 16 63 6 29 -6 29 -5 -8 15 -32 18 -36 23 -27 40 13 24 13 24 51 4 17 -8 33 -13 36 -10 4 4 -69 46 -81 46 -3 0 -19 -27 -36 -60z"/>
 <path d="M3592 5504 c-23 -16 -30 -54 -10 -54 6 0 8 3 5 6 -12 13 14 44 37 44 37 0 38 -12 5 -46 -37 -39 -36 -68 4 -72 34 -4 57 13 56 42 0 14 -2 16 -6 6 -7 -19 -33 -40 -50 -40 -21 0 -15 25 12 50 53 50 7 107 -53 64z"/>
 <path d="M2972 5478 c-16 -16 -15 -23 4 -42 21 -22 56 -3 52 27 -3 25 -37 34 -56 15z"/>
 <path d="M190 4895 l0 -245 2805 0 2805 0 0 245 0 245 -2805 0 -2805 0 0 -245z m2896 141 c36 -36 42 -63 23 -99 -16 -29 -30 -37 -119 -67 -59 -20 -76 -30 -78 -46 -5 -33 24 -54 71 -54 48 0 59 6 76 38 6 12 21 22 31 22 23 0 25 -9 9 -43 -27 -60 -142 -78 -198 -31 -24 20 -31 34 -31 62 0 49 22 69 104 93 82 24 96 34 96 62 0 35 -29 57 -75 57 -45 0 -95 -29 -95 -56 0 -8 -10 -14 -25 -14 -29 0 -29 0 -10 46 18 43 60 63 134 64 47 0 57 -4 87 -34z m121 -18 l20 -53 67 -3 67 -3 24 56 c18 40 30 55 45 55 11 0 20 -3 20 -7 0 -4 -30 -81 -66 -170 -59 -143 -70 -163 -89 -163 -13 0 -26 8 -30 18 -43 109 -115 304 -115 312 0 5 8 10 19 10 13 0 24 -15 38 -52z m335 -75 l3 -127 82 127 c61 94 87 127 103 127 19 0 20 -6 20 -170 0 -163 -1 -170 -20 -170 -19 0 -20 7 -20 133 l0 132 -86 -132 c-71 -110 -90 -133 -110 -133 l-24 0 0 170 0 170 25 0 24 0 3 -127z m459 -10 l1 -138 46 138 c40 119 49 137 67 135 16 -2 27 -27 58 -125 21 -68 42 -123 48 -123 5 0 9 54 9 125 0 118 1 125 20 125 19 0 20 -7 20 -170 l0 -170 -34 0 -35 0 -42 135 c-23 74 -45 132 -48 129 -3 -3 -24 -63 -46 -132 -40 -126 -41 -127 -73 -130 l-32 -3 0 170 c0 164 1 171 20 171 19 0 20 -7 21 -137z m389 -33 c0 -163 -1 -170 -20 -170 -19 0 -20 7 -20 170 0 163 1 170 20 170 19 0 20 -7 20 -170z m304 155 c27 -14 31 -14 38 0 5 8 16 15 23 15 12 0 15 -17 15 -85 l0 -85 -65 0 c-58 0 -65 2 -65 20 0 17 7 20 45 20 41 0 45 2 45 24 0 52 -90 89 -154 62 -64 -27 -91 -131 -53 -203 22 -41 50 -56 106 -56 37 0 49 5 72 31 45 50 80 37 43 -16 -36 -52 -138 -69 -204 -33 -104 55 -104 247 0 302 42 23 114 24 154 4z m346 2 c46 -23 60 -69 60 -204 0 -116 -1 -123 -20 -123 -19 0 -20 7 -20 103 0 164 -17 197 -98 197 -67 0 -76 -20 -80 -171 -3 -121 -5 -129 -24 -129 -19 0 -19 6 -16 141 l3 141 33 29 c27 24 41 29 85 29 28 0 63 -6 77 -13z m380 -7 c0 -19 -7 -20 -100 -20 l-100 0 0 -60 0 -60 90 0 c73 0 90 -3 90 -15 0 -12 -17 -15 -90 -15 l-90 0 0 -55 0 -55 100 0 c93 0 100 -1 100 -20 0 -19 -7 -20 -120 -20 l-120 0 0 170 0 170 120 0 c113 0 120 -1 120 -20z m270 0 c0 -18 -7 -20 -80 -20 l-80 0 0 -150 c0 -143 -1 -150 -20 -150 -19 0 -20 7 -20 170 l0 170 100 0 c93 0 100 -1 100 -20z"/>
 <path d="M3243 4918 c2 -7 15 -41 27 -76 13 -34 24 -61 26 -60 3 4 54 139 54 144 0 2 -25 4 -56 4 -41 0 -55 -3 -51 -12z"/>
 <path d="M5783 4258 c-12 -13 -34 -45 -51 -73 -16 -27 -93 -156 -172 -285 -78 -129 -189 -312 -245 -405 -140 -232 -267 -438 -285 -464 l-15 -22 -55 25 c-30 14 -60 26 -67 26 -6 0 -24 -24 -40 -52 -32 -57 -487 -848 -510 -887 -8 -13 -19 -19 -23 -15 -8 8 -145 244 -381 656 -46 81 -88 148 -93 148 -5 0 -52 -21 -105 -46 l-96 -45 -15 22 c-8 12 -40 67 -71 123 -30 55 -99 180 -154 276 -195 348 -321 576 -360 653 -47 91 -37 96 -127 -73 -33 -63 -109 -200 -167 -305 -59 -104 -172 -306 -251 -447 -80 -142 -148 -258 -152 -258 -4 0 -49 20 -99 45 -50 25 -95 45 -99 45 -4 0 -52 -78 -107 -172 -55 -95 -160 -278 -233 -405 -74 -128 -137 -233 -140 -233 -3 0 -127 209 -274 464 -147 255 -273 472 -280 481 -11 16 -17 15 -75 -10 -35 -14 -67 -23 -71 -18 -4 4 -29 44 -55 88 -26 44 -131 217 -233 385 -152 250 -383 632 -461 762 -9 16 -19 28 -23 28 -5 0 -8 -548 -8 -1218 l0 -1217 1406 -812 1405 -812 737 426 c405 234 769 441 807 458 39 18 76 39 83 48 8 9 276 168 598 353 l584 338 0 1223 c0 673 -1 1223 -3 1223 -2 0 -13 -10 -24 -22z m-4515 -2161 c11 -12 89 -273 99 -330 3 -15 9 -29 13 -32 4 -2 24 35 45 83 104 240 115 257 158 247 40 -10 54 -38 76 -146 21 -103 57 -487 46 -497 -11 -11 -44 37 -56 81 -7 23 -13 76 -15 117 -5 136 -39 350 -55 350 -11 0 -49 -87 -104 -240 l-53 -145 21 -53 c14 -37 17 -56 9 -64 -7 -7 -15 -4 -28 10 -13 15 -25 19 -46 15 -41 -8 -58 11 -58 66 0 44 -20 176 -55 366 -32 170 -31 213 3 172z m619 -142 c67 -40 86 -92 61 -162 -14 -37 -35 -48 -81 -39 -33 6 -122 68 -141 98 -13 22 -1 34 19 18 13 -11 15 -7 15 28 0 30 6 47 22 62 29 26 52 25 105 -5z m215 -17 c8 -7 34 -37 56 -65 l40 -53 19 38 c25 52 57 54 105 7 36 -34 56 -46 43 -25 -3 6 3 24 15 40 17 24 29 30 58 30 61 0 182 -92 182 -138 0 -22 -4 -21 -52 23 -66 60 -133 94 -150 77 -9 -9 0 -22 38 -54 26 -24 62 -55 78 -69 35 -31 28 -49 -20 -49 -47 0 -87 22 -113 62 -11 18 -21 26 -21 18 0 -8 -20 6 -48 33 -26 26 -53 47 -60 47 -7 0 -12 -16 -12 -42 0 -43 19 -108 31 -108 12 0 89 -186 89 -214 0 -33 -26 -45 -45 -20 -21 29 -105 198 -105 212 0 8 -5 22 -11 33 -10 19 -11 19 -23 4 -11 -15 -17 -16 -49 -6 -54 18 -127 116 -127 171 0 52 44 78 82 48z m731 -19 c25 -13 83 -49 129 -80 46 -31 100 -66 122 -79 37 -22 38 -23 27 -2 -16 31 -13 53 11 79 39 41 92 25 183 -53 27 -24 53 -44 56 -44 4 0 2 16 -4 35 -8 27 -8 38 2 48 10 9 17 6 33 -16 41 -57 129 -137 149 -137 4 0 9 28 11 63 4 84 23 87 101 12 31 -30 59 -55 60 -55 2 0 1 16 -1 36 -6 50 30 88 75 81 91 -15 147 -111 111 -190 -28 -60 -107 -40 -208 53 -100 93 -100 93 -93 15 l6 -65 -32 0 c-22 0 -44 11 -73 38 -24 20 -46 41 -50 47 -4 5 -10 7 -13 3 -7 -7 39 -113 54 -122 32 -20 87 -190 71 -216 -22 -35 -56 20 -135 214 -31 75 -81 131 -175 195 -90 62 -121 61 -101 -2 16 -48 69 -95 111 -99 24 -2 36 -9 38 -21 9 -44 -81 -28 -137 25 -19 18 -41 33 -48 34 -7 1 -29 12 -49 23 -44 26 -46 26 -32 -4 15 -33 -2 -72 -38 -85 -15 -6 -76 -14 -136 -19 -61 -5 -115 -14 -120 -19 -15 -15 23 -65 70 -93 20 -13 39 -26 42 -30 10 -14 158 -59 192 -59 53 0 84 21 80 54 -2 22 1 27 15 24 26 -5 22 -73 -5 -101 -25 -25 -90 -36 -152 -25 -109 19 -268 132 -286 203 -11 43 18 61 125 80 107 18 144 32 149 58 5 25 -43 84 -81 101 -62 28 -181 101 -185 115 -7 21 76 9 131 -20z m1282 -158 c38 -22 75 -76 75 -111 0 -40 -27 -87 -54 -94 -13 -3 -39 0 -58 8 -42 18 -128 93 -128 112 0 17 12 18 28 2 9 -9 12 -3 12 29 0 33 5 45 28 62 29 22 47 20 97 -8z m259 -33 c52 -35 88 -85 84 -113 -3 -24 -6 -22 -47 29 -39 50 -75 76 -87 63 -3 -2 -6 -19 -9 -37 -3 -25 0 -33 14 -37 28 -7 132 -203 162 -301 11 -37 10 -45 -2 -53 -17 -11 -30 -11 -45 -1 -31 21 -126 194 -157 286 -20 58 -22 118 -6 149 23 43 48 47 93 15z"/>
 <path d="M1815 1948 c-19 -57 8 -113 67 -144 24 -13 27 -12 22 1 -4 8 -1 22 6 30 17 20 -3 67 -42 100 -33 28 -47 31 -53 13z"/>
 <path d="M2060 1901 c0 -39 49 -105 97 -130 37 -19 45 -13 27 20 -33 65 -124 146 -124 110z"/>
 <path d="M2430 1791 c0 -12 25 -38 51 -51 26 -14 24 2 -3 27 -31 27 -48 36 -48 24z"/>
 <path d="M2300 1627 c0 -11 49 -99 49 -89 1 14 -37 92 -44 92 -3 0 -5 -1 -5 -3z"/>
 <path d="M2790 1900 c0 -4 9 -10 20 -13 11 -3 20 -2 20 3 0 4 -9 10 -20 13 -11 3 -20 2 -20 -3z"/>
 <path d="M3767 1783 c-15 -15 -5 -71 18 -106 14 -20 30 -37 35 -37 4 0 16 -3 26 -7 12 -5 15 -3 9 6 -4 8 -2 17 5 21 20 12 3 59 -35 97 -33 33 -46 39 -58 26z"/>
 <path d="M4040 1722 c0 -37 40 -112 60 -112 4 0 16 -3 26 -7 12 -4 15 -3 10 6 -4 6 -3 18 4 25 6 8 8 25 5 38 -8 33 -62 88 -86 88 -15 0 -19 -7 -19 -38z"/>
 <path d="M4340 1548 c0 -19 54 -125 93 -183 29 -43 36 -29 13 26 -23 52 -106 176 -106 157z"/>
 <path d="M3331 3508 c7 -13 66 -120 132 -238 65 -118 135 -243 154 -278 19 -35 36 -62 38 -60 2 2 24 38 49 80 l45 77 -82 145 c-45 80 -85 146 -89 146 -4 0 -10 -11 -14 -25 -3 -14 -9 -25 -12 -25 -3 0 -53 45 -112 100 -60 55 -111 100 -114 100 -4 0 -1 -10 5 -22z"/>
 <path d="M2560 3423 c-56 -54 -107 -99 -111 -101 -5 -2 -14 9 -20 24 -12 34 -3 45 -106 -134 l-76 -133 27 -47 c15 -26 34 -62 43 -79 9 -18 19 -33 22 -33 9 0 334 591 328 596 -2 2 -50 -40 -107 -93z"/>
 <path d="M956 3273 c8 -27 22 -79 31 -116 16 -65 18 -68 43 -62 14 4 29 10 33 14 8 8 -102 210 -115 211 -4 0 0 -21 8 -47z"/>
 <path d="M4978 3223 c-58 -100 -58 -103 -12 -117 20 -6 24 0 43 71 11 43 25 93 30 111 16 55 -2 36 -61 -65z"/>
 <path d="M3958 2969 c-21 -11 -38 -25 -37 -32 1 -20 394 -702 405 -701 5 1 34 46 65 100 195 348 289 518 286 521 -2 2 -49 -22 -104 -52 -55 -30 -104 -55 -108 -55 -6 0 -45 41 -182 190 l-41 45 -28 -63 c-14 -34 -31 -62 -36 -62 -5 0 -47 29 -93 65 -45 36 -84 65 -86 65 -2 -1 -21 -10 -41 -21z"/>
 <path d="M1914 2918 c-43 -33 -84 -65 -91 -70 -8 -6 -19 9 -39 51 -15 34 -30 61 -34 61 -4 0 -54 -49 -110 -110 -56 -60 -106 -110 -110 -110 -5 0 -54 25 -111 55 -56 30 -103 54 -105 52 -1 -1 19 -38 44 -82 25 -44 105 -187 178 -318 128 -231 133 -238 147 -215 12 19 162 283 351 616 26 46 46 85 44 87 -2 1 -21 12 -44 23 l-40 21 -80 -61z"/>
 </g>

</svg>